# xmcd CD database file
#
# Track frame offsets:
#	150
#	23341
#	54342
#	70190
#	93442
#	114649
#	142803
#	165953
#	196732
#	224818
#
# Disc length: 3339 seconds
#
# Revision: 2
# Processed by: cddbd v1.5.2PL0 Copyright (c) Steve Scherf et al.
# Submitted via: CDex 1.51
#
DISCID=7e0d090a
DTITLE=Ursula Rucker - Silver or lead
DYEAR=2003
DGENRE=Jazz
TTITLE0=Soon
TTITLE1=What a woman must do
TTITLE2=Untitled flow
TTITLE3=Lonely can be sweet
TTITLE4=Time
TTITLE5=Q&A
TTITLE6=Release
TTITLE7=I/We
TTITLE8=Damned if I do
TTITLE9=Return of innocence lost
EXTD=Compañia K7 YEAR: 2003
EXTT0=
EXTT1=
EXTT2=
EXTT3=
EXTT4=
EXTT5=
EXTT6=
EXTT7=
EXTT8=
EXTT9=
PLAYORDER=
